<?xml version="1.0" encoding="UTF-8"?>
<svg xmlns="http://www.w3.org/2000/svg" xmlns:xlink="http://www.w3.org/1999/xlink" width="192pt" height="95.999999pt" viewBox="0 0 192 95.999999" version="1.2">
<g id="surface1">
<path style=" stroke:none;fill-rule:nonzero;fill:rgb(47.059631%,79.219055%,31.759644%);fill-opacity:1;" d="M 96.148438 48.183594 C 86.820312 57.53125 86.820312 72.691406 96.148438 82.042969 C 105.476562 91.390625 120.605469 91.390625 129.933594 82.042969 L 163.722656 48.183594 C 173.050781 38.832031 173.050781 23.671875 163.722656 14.324219 C 154.390625 4.976562 139.265625 4.976562 129.933594 14.324219 Z M 96.148438 48.183594 "/>
<path style=" stroke:none;fill-rule:nonzero;fill:rgb(7.839966%,35.289001%,90.19928%);fill-opacity:1;" d="M 96.148438 48.183594 C 105.476562 38.832031 105.476562 23.671875 96.148438 14.324219 C 86.820312 4.976562 71.691406 4.976562 62.363281 14.324219 L 28.574219 48.183594 C 19.246094 57.53125 19.246094 72.691406 28.574219 82.042969 C 37.902344 91.390625 53.03125 91.390625 62.363281 82.042969 Z M 96.148438 48.183594 "/>
<path style=" stroke:none;fill-rule:nonzero;fill:rgb(100%,70.199585%,0%);fill-opacity:1;" d="M 96.148438 82.042969 C 105.476562 91.390625 120.605469 91.390625 129.933594 82.042969 C 139.265625 72.691406 139.265625 57.53125 129.933594 48.183594 L 96.148438 14.324219 C 86.820312 4.976562 71.691406 4.976562 62.363281 14.324219 C 53.03125 23.671875 53.03125 38.832031 62.363281 48.183594 Z M 96.148438 82.042969 "/>
<path style=" stroke:none;fill-rule:nonzero;fill:rgb(100%,100%,100%);fill-opacity:1;" d="M 126.882812 81.234375 C 126.464844 81.59375 126.039062 81.945312 125.59375 82.269531 C 126.039062 81.945312 126.464844 81.597656 126.882812 81.234375 Z M 126.882812 81.234375 "/>
<path style=" stroke:none;fill-rule:nonzero;fill:rgb(100%,100%,100%);fill-opacity:1;" d="M 94.269531 46.292969 L 94.265625 46.296875 L 94.261719 46.296875 L 94.269531 46.296875 Z M 94.269531 46.292969 "/>
<path style=" stroke:none;fill-rule:nonzero;fill:rgb(100%,100%,100%);fill-opacity:1;" d="M 124.726562 82.875 C 124.136719 83.265625 123.535156 83.621094 122.917969 83.945312 C 123.535156 83.621094 124.136719 83.265625 124.726562 82.875 Z M 124.726562 82.875 "/>
<path style=" stroke:none;fill-rule:nonzero;fill:rgb(100%,100%,100%);fill-opacity:1;" d="M 122.917969 83.945312 C 122.4375 84.199219 121.941406 84.425781 121.449219 84.640625 C 121.941406 84.425781 122.4375 84.199219 122.917969 83.945312 Z M 122.917969 83.945312 "/>
<path style=" stroke:none;fill-rule:nonzero;fill:rgb(100%,100%,100%);fill-opacity:1;" d="M 120.671875 84.957031 C 119.566406 85.382812 118.429688 85.714844 117.277344 85.949219 C 118.429688 85.714844 119.566406 85.382812 120.671875 84.957031 Z M 120.671875 84.957031 "/>
<path style=" stroke:none;fill-rule:nonzero;fill:rgb(100%,100%,100%);fill-opacity:1;" d="M 98.027344 50.078125 L 98.03125 50.074219 C 98.03125 50.074219 98.035156 50.070312 98.035156 50.070312 L 98.03125 50.074219 C 98.03125 50.074219 98.03125 50.074219 98.027344 50.078125 Z M 98.027344 50.078125 "/>
<path style=" stroke:none;fill-rule:nonzero;fill:rgb(100%,100%,100%);fill-opacity:1;" d="M 121.449219 84.644531 C 121.191406 84.753906 120.929688 84.859375 120.671875 84.957031 C 120.929688 84.859375 121.191406 84.753906 121.449219 84.644531 Z M 121.449219 84.644531 "/>
<path style=" stroke:none;fill-rule:nonzero;fill:rgb(100%,100%,100%);fill-opacity:1;" d="M 128.054688 80.15625 C 127.675781 80.535156 127.285156 80.890625 126.886719 81.238281 C 127.285156 80.890625 127.675781 80.535156 128.054688 80.15625 Z M 128.054688 80.15625 "/>
<path style=" stroke:none;fill-rule:nonzero;fill:rgb(100%,100%,100%);fill-opacity:1;" d="M 117.277344 85.949219 C 117.160156 85.972656 117.046875 85.996094 116.929688 86.019531 C 117.046875 85.996094 117.164062 85.972656 117.277344 85.949219 Z M 117.277344 85.949219 "/>
<path style=" stroke:none;fill-rule:nonzero;fill:rgb(100%,100%,100%);fill-opacity:1;" d="M 165.609375 12.4375 C 155.253906 2.0625 138.410156 2.0625 128.054688 12.4375 L 113.042969 27.480469 L 98.03125 12.4375 C 87.679688 2.0625 70.832031 2.0625 60.476562 12.4375 L 26.691406 46.296875 C 16.335938 56.671875 16.335938 73.554688 26.691406 83.929688 C 37.046875 94.304688 53.890625 94.304688 64.246094 83.929688 L 79.257812 68.886719 L 94.269531 83.929688 C 104.621094 94.304688 121.46875 94.304688 131.820312 83.929688 L 165.609375 50.070312 C 175.960938 39.695312 175.960938 22.8125 165.609375 12.4375 Z M 60.476562 80.15625 C 52.203125 88.453125 38.734375 88.453125 30.457031 80.15625 C 22.179688 71.863281 22.179688 58.367188 30.457031 50.074219 L 52.976562 27.507812 C 51.847656 35.507812 54.351562 43.933594 60.476562 50.074219 L 75.488281 65.117188 Z M 128.054688 80.15625 C 127.675781 80.535156 127.285156 80.890625 126.886719 81.238281 C 126.46875 81.597656 126.042969 81.945312 125.597656 82.273438 C 125.3125 82.484375 125.023438 82.6875 124.726562 82.878906 C 124.136719 83.265625 123.535156 83.625 122.917969 83.949219 C 122.4375 84.203125 121.941406 84.429688 121.449219 84.644531 C 121.191406 84.753906 120.933594 84.859375 120.671875 84.957031 C 119.566406 85.382812 118.429688 85.714844 117.277344 85.949219 C 117.160156 85.972656 117.046875 85.996094 116.929688 86.019531 C 110.285156 87.25 103.160156 85.296875 98.03125 80.15625 L 86.765625 68.867188 L 83.019531 65.113281 L 79.253906 61.339844 L 64.242188 46.296875 C 55.964844 38 55.964844 24.503906 64.242188 16.210938 C 72.519531 7.914062 85.988281 7.914062 94.261719 16.210938 L 105.527344 27.503906 L 109.273438 31.253906 L 113.039062 35.03125 L 128.050781 50.074219 C 136.328125 58.367188 136.328125 71.863281 128.054688 80.15625 Z M 161.839844 46.296875 L 139.324219 68.863281 C 140.449219 60.859375 137.949219 52.4375 131.820312 46.296875 L 116.808594 31.253906 L 131.820312 16.210938 C 140.101562 7.917969 153.566406 7.917969 161.839844 16.210938 C 170.117188 24.507812 170.117188 38.003906 161.839844 46.296875 Z M 161.839844 46.296875 "/>
</g>
</svg>
